<svg width="300" height="300" viewBox="0 0 300 300" fill="none" xmlns="http://www.w3.org/2000/svg">
<path d="M198.952 145.476C172.877 138.595 157.667 110.306 151.572 65.3036C151.338 63.5609 148.813 63.57 148.579 65.3036C142.574 111.065 127.094 139.372 101.037 145.521C99.6665 145.846 99.6575 148.031 100.992 148.383C128.23 155.462 143.322 185.927 148.498 234.641C148.687 236.447 151.293 236.456 151.5 234.65C157.009 186.054 172.039 155.056 198.988 148.374C200.331 148.04 200.358 145.855 198.943 145.485L198.952 145.476ZM149.571 210C147.371 170.568 136.569 146.839 113.596 146.839C135.469 146.839 146.956 125.963 150.039 90.0622C153.231 125.656 164.7 146.839 186.401 146.839C163.437 146.839 151.924 170.568 149.562 210H149.571Z" fill="#191919"/>
</svg>
